<svg xmlns="http://www.w3.org/2000/svg" viewBox="0 0 153.15 133.11"><defs><style>.cls-1{fill:#ff1e23;}</style></defs><title>flecha</title><g id="Capa_2" data-name="Capa 2"><g id="OBJECTS"><path class="cls-1" d="M5.45,110A90.29,90.29,0,0,1,40.22,76,81,81,0,0,1,63.3,67.71c8-1.5,16.44-1.91,24.55-.11a38.66,38.66,0,0,1,5.94,1.79A34.51,34.51,0,0,1,99.4,72.1a31.85,31.85,0,0,1,9.3,8.27,38.41,38.41,0,0,1,7.8,23.32A32.39,32.39,0,0,1,114,116,28.81,28.81,0,0,1,95.49,132.2a23.46,23.46,0,0,1-12.74.06A23.85,23.85,0,0,1,72,125.36a35.34,35.34,0,0,1-6.65-10.74,48.19,48.19,0,0,1-3.11-12.17A78.41,78.41,0,0,1,61.77,90c.16-4.13.56-8.22,1-12.28s1.08-8.16,1.92-12.2a98,98,0,0,1,7.84-23.49A75.27,75.27,0,0,1,86.94,21.8,76.94,76.94,0,0,1,107.05,7.28a89.8,89.8,0,0,1,11.42-4.79A39.82,39.82,0,0,1,130.76,0a30.63,30.63,0,0,1,12.41,2,22.66,22.66,0,0,1,5.52,3.13A20.77,20.77,0,0,1,153,9.75a.72.72,0,0,1-1.15.85h0a20.4,20.4,0,0,0-9.4-6.71,29.33,29.33,0,0,0-11.59-1.42,37.16,37.16,0,0,0-11.49,2.6,86.76,86.76,0,0,0-11,4.9A73.47,73.47,0,0,0,75.58,43.53a94.6,94.6,0,0,0-7.66,22.68c-.83,3.93-1.45,7.89-1.92,11.9s-.89,8-1.07,12c-.38,8,.18,16.07,3.09,23.4a32.71,32.71,0,0,0,6,10,19.9,19.9,0,0,0,20.83,6.31A26.41,26.41,0,0,0,112,115.12a30.31,30.31,0,0,0,2.45-11.46,36.63,36.63,0,0,0-7.17-22.24c-4.69-6.45-12-10.64-19.8-12.35s-16-1.39-23.94.06a79.58,79.58,0,0,0-22.7,8.11A86.17,86.17,0,0,0,21.44,91.57,88.65,88.65,0,0,0,6.68,110.69a.7.7,0,0,1-1,.27.72.72,0,0,1-.27-1Z"/><path class="cls-1" d="M11,116.7a33.26,33.26,0,0,0-4.6,2.36A36.51,36.51,0,0,0,2.11,122a1,1,0,0,1-1.36-.15,1,1,0,0,1-.2-.54l0-.21L.3,117.7c-.09-1.13-.18-2.25-.22-3.38S0,112.07,0,110.94a21.8,21.8,0,0,1,.31-3.39l2.5,0a11,11,0,0,1-.54,1.78.78.78,0,0,1-1,.42.75.75,0,0,1-.42-.42,10.12,10.12,0,0,1-.53-1.79,1.21,1.21,0,0,1,2.36-.57l.13.52a17.61,17.61,0,0,1,.54,3.43c.05,1.15.05,2.3,0,3.45s-.16,2.3-.3,3.45-.3,2.29-.47,3.43L1,120.3l4.68-2.48,4.69-2.41a.7.7,0,0,1,1,.3.71.71,0,0,1-.3,1Z"/></g></g></svg>